Coordinates
version=1
nRows=6
nColumns=38
inDegrees=yes

Units are S.I. units (second, meters, Newtons, ...)
Angles are in degrees.

endheader
time	pelvis_tilt	pelvis_list	pelvis_rotation	pelvis_tx	pelvis_ty	pelvis_tz	hip_flexion_r	hip_adduction_r	hip_rotation_r	knee_angle_r	ankle_angle_r	subtalar_angle_r	mtp_angle_r	hip_flexion_l	hip_adduction_l	hip_rotation_l	knee_angle_l	ankle_angle_l	subtalar_angle_l	mtp_angle_l	lumbar_extension	lumbar_bending	lumbar_rotation	arm_flex_r	arm_add_r	arm_rot_r	elbow_flex_r	pro_sup_r	wrist_flex_r	wrist_dev_r	arm_flex_l	arm_add_l	arm_rot_l	elbow_flex_l	pro_sup_l	wrist_flex_l	wrist_dev_l
      1.30000000	      0.13931388	      2.82902847	     -6.69567945	     -0.08030016	      1.00998782	     -0.25380322	    -17.48246428	     -5.19758352	     -8.60946426	    -22.22033640	     -2.28939106	      6.32549583	      0.00000000	     26.41541535	      1.92618925	     -7.14331306	    -19.94464233	     -7.15944156	     -7.03683734	      0.00000000	     -7.09410838	     -3.51564205	      9.28508094	      5.82997310	     -9.47354576	     46.53700240	     26.13214960	     44.56867208	      0.00000000	      0.00000000	     -5.26847612	     -3.45217814	     44.35132056	     22.73592759	     44.56867208	      0.00000000	      0.00000000
      1.31000000	      0.20732605	      3.24572542	     -6.39518079	     -0.06427851	      1.01259268	     -0.25518753	    -16.73456831	     -5.94186695	     -8.75832329	    -24.41812101	     -6.25719055	      5.96323720	      0.00000000	     26.06123011	      2.67491250	     -6.49996339	    -21.16527453	     -5.96817301	     -7.26063151	      0.00000000	     -6.87346729	     -3.95107424	      8.95512201	      5.22267631	     -9.18156944	     46.69065392	     26.04712613	     44.57099392	      0.00000000	      0.00000000	     -5.36855935	     -3.57994749	     44.43001171	     22.71326241	     44.57099392	      0.00000000	      0.00000000
      1.32000000	      0.24918182	      3.61880130	     -6.19789440	     -0.04911430	      1.01522199	     -0.25655628	    -15.66651500	     -6.67805878	     -8.68791160	    -26.93572102	     -9.91526867	      5.56329041	      0.00000000	     25.52576475	      3.34975184	     -5.98120264	    -21.92929860	     -4.95006826	     -7.38732098	      0.00000000	     -6.74036250	     -4.33400844	      8.72601654	      4.73857964	     -8.93429834	     46.80675072	     25.88853747	     44.57375613	      0.00000000	      0.00000000	     -5.33342040	     -3.69255592	     44.50948201	     22.71784963	     44.57375613	      0.00000000	      0.00000000
      1.33000000	      0.30811880	      3.90016236	     -6.00729708	     -0.03432282	      1.01798673	     -0.25783669	    -14.45551218	     -7.03339318	     -7.69224474	    -29.61260864	    -12.66000220	      4.04899731	      0.00000000	     24.82564491	      3.89348937	     -5.68532405	    -22.41739667	     -4.03619038	     -7.32904005	      0.00000000	     -6.71528610	     -4.61571861	      8.43514438	      5.08935979	     -8.41564838	     50.62227527	     23.42175104	     44.70435073	      0.00000000	      0.00000000	     -4.93450179	     -3.89113127	     47.36303424	     21.98152103	     44.70435073	      0.00000000	      0.00000000
      1.34000000	      0.45379703	      4.13677893	     -5.79803462	     -0.01979827	      1.02080693	     -0.25912056	    -13.13436152	     -7.23629333	     -6.54744736	    -32.57068658	    -14.68083384	      2.36259861	      0.00000000	     23.82158818	      4.39440525	     -5.53767954	    -22.47767120	     -3.06399992	     -7.14134920	      0.00000000	     -6.85314659	     -4.85691718	      8.14311669	      4.73754145	     -8.18499642	     50.65820675	     23.39459393	     44.70644732	      0.00000000	      0.00000000	     -4.78461102	     -3.99026642	     47.34218865	     21.96458078	     44.70644732	      0.00000000	      0.00000000
      1.35000000	      0.33225005	      3.90023945	     -5.35175026	     -0.00657855	      1.02320957	     -0.26029324	    -11.44262846	     -6.59419635	     -5.19594961	    -35.53168167	    -16.47863954	     -0.18736146	      0.00000000	     23.23509526	      4.39101740	     -5.19547865	    -22.75900006	     -2.16202574	     -6.62204373	      0.00000000	     -6.89840822	     -4.56439663	      7.63569039	      4.51980266	     -7.99110260	     50.64110693	     23.30189397	     44.70992274	      0.00000000	      0.00000000	     -4.52776781	     -4.08489455	     47.31934172	     22.01383048	     44.70992274	      0.00000000	      0.00000000
